<svg xmlns="http://www.w3.org/2000/svg" xmlns:xlink="http://www.w3.org/1999/xlink" width="40" zoomAndPan="magnify" viewBox="0 0 30 30.000001" height="40" preserveAspectRatio="xMidYMid meet" version="1.0"><defs><clipPath id="da995c8e06"><path d="M 0.484375 0.253906 L 28.789062 0.253906 L 28.789062 28.558594 L 0.484375 28.558594 Z M 0.484375 0.253906 " clip-rule="nonzero"/></clipPath></defs><g clip-path="url(#da995c8e06)"><path fill="#000000" d="M 14.632812 0.253906 C 6.800781 0.253906 0.480469 6.632812 0.480469 14.40625 C 0.480469 22.242188 6.863281 28.558594 14.632812 28.558594 C 22.46875 28.558594 28.785156 22.175781 28.785156 14.40625 C 28.785156 6.632812 22.46875 0.253906 14.632812 0.253906 Z M 23.417969 21.230469 C 23.039062 22.492188 21.332031 24.324219 19.753906 24.324219 L 19.625 24.261719 C 17.289062 24.136719 14.066406 21.925781 11.097656 18.324219 L 10.023438 16.996094 C 7.054688 13.394531 5.472656 9.855469 5.851562 7.582031 C 6.105469 5.941406 8.507812 4.613281 9.894531 4.613281 C 10.589844 4.613281 10.84375 4.929688 10.90625 5.179688 C 11.664062 6.570312 12.675781 8.972656 12.675781 9.855469 L 12.675781 9.984375 C 12.488281 10.425781 12.105469 10.679688 11.792969 10.867188 C 11.347656 11.121094 11.097656 11.308594 11.035156 11.753906 C 11.035156 11.878906 11.160156 12.574219 13.117188 14.972656 L 13.941406 15.984375 C 15.898438 18.324219 16.53125 18.574219 16.65625 18.574219 C 17.160156 18.640625 17.351562 18.449219 17.730469 18.070312 C 17.984375 17.753906 18.300781 17.4375 18.742188 17.375 L 18.867188 17.375 C 19.753906 17.566406 21.898438 18.953125 23.164062 20.027344 C 23.351562 20.09375 23.667969 20.40625 23.417969 21.230469 Z M 23.417969 21.230469 " fill-opacity="1" fill-rule="nonzero"/></g></svg>