<svg xmlns="http://www.w3.org/2000/svg" xmlns:xlink="http://www.w3.org/1999/xlink" width="40" zoomAndPan="magnify" viewBox="0 0 30 30.000001" height="40" preserveAspectRatio="xMidYMid meet" version="1.0"><defs><clipPath id="cbe9d97f38"><path d="M 0.992188 0.507812 L 29.296875 0.507812 L 29.296875 28.816406 L 0.992188 28.816406 Z M 0.992188 0.507812 " clip-rule="nonzero"/></clipPath></defs><g clip-path="url(#cbe9d97f38)"><path fill="#000000" d="M 15.144531 0.507812 C 7.328125 0.507812 0.992188 6.84375 0.992188 14.660156 C 0.992188 22.476562 7.328125 28.816406 15.144531 28.816406 C 22.960938 28.816406 29.296875 22.476562 29.296875 14.660156 C 29.296875 6.84375 22.960938 0.507812 15.144531 0.507812 Z M 6.519531 7.890625 L 23.753906 7.890625 C 23.796875 7.890625 23.824219 7.910156 23.84375 7.953125 C 23.859375 7.992188 23.851562 8.027344 23.820312 8.054688 L 18.027344 13.554688 L 18.015625 13.5625 L 16.285156 15.207031 C 16.121094 15.363281 15.929688 15.488281 15.714844 15.570312 C 15.5 15.65625 15.277344 15.699219 15.046875 15.699219 C 14.816406 15.695312 14.59375 15.652344 14.382812 15.566406 C 14.167969 15.476562 13.980469 15.351562 13.816406 15.191406 L 12.210938 13.640625 C 12.210938 13.636719 12.207031 13.632812 12.203125 13.632812 L 6.453125 8.054688 C 6.421875 8.023438 6.414062 7.992188 6.429688 7.949219 C 6.445312 7.910156 6.476562 7.890625 6.519531 7.890625 Z M 5.707031 20.480469 L 5.707031 8.652344 C 5.707031 8.609375 5.726562 8.582031 5.765625 8.566406 C 5.804688 8.546875 5.835938 8.554688 5.867188 8.582031 L 11.335938 13.882812 C 11.375 13.925781 11.378906 13.96875 11.339844 14.011719 L 5.875 20.542969 C 5.847656 20.574219 5.8125 20.585938 5.769531 20.570312 C 5.726562 20.554688 5.707031 20.523438 5.707031 20.480469 Z M 23.929688 21.429688 L 6.359375 21.429688 C 6.320312 21.429688 6.289062 21.414062 6.273438 21.375 C 6.257812 21.339844 6.261719 21.304688 6.285156 21.273438 L 11.898438 14.574219 C 11.941406 14.519531 11.988281 14.519531 12.039062 14.566406 L 13.265625 15.757812 C 13.761719 16.238281 14.351562 16.480469 15.042969 16.480469 L 15.054688 16.480469 C 15.742188 16.484375 16.332031 16.246094 16.828125 15.777344 L 18.1875 14.484375 C 18.234375 14.4375 18.28125 14.441406 18.324219 14.492188 L 24.003906 21.273438 C 24.027344 21.304688 24.035156 21.339844 24.015625 21.375 C 24 21.414062 23.972656 21.429688 23.929688 21.429688 Z M 24.582031 20.480469 C 24.582031 20.523438 24.5625 20.554688 24.519531 20.570312 C 24.480469 20.585938 24.445312 20.574219 24.414062 20.542969 L 18.890625 13.941406 C 18.851562 13.894531 18.851562 13.851562 18.894531 13.8125 L 24.421875 8.566406 C 24.453125 8.539062 24.488281 8.53125 24.527344 8.546875 C 24.566406 8.566406 24.582031 8.59375 24.582031 8.636719 Z M 24.582031 20.480469 " fill-opacity="1" fill-rule="nonzero"/></g></svg>