<svg xmlns="http://www.w3.org/2000/svg" xmlns:xlink="http://www.w3.org/1999/xlink" width="40" zoomAndPan="magnify" viewBox="0 0 30 30.000001" height="40" preserveAspectRatio="xMidYMid meet" version="1.0"><defs><g/><clipPath id="e5c03e382d"><path d="M 0.882812 0.398438 L 29.191406 0.398438 L 29.191406 28.707031 L 0.882812 28.707031 Z M 0.882812 0.398438 " clip-rule="nonzero"/></clipPath></defs><g clip-path="url(#e5c03e382d)"><path fill="#000000" d="M 29.191406 14.550781 C 29.191406 15.480469 29.097656 16.402344 28.917969 17.3125 C 28.734375 18.226562 28.46875 19.109375 28.113281 19.96875 C 27.757812 20.828125 27.320312 21.644531 26.804688 22.414062 C 26.289062 23.1875 25.703125 23.902344 25.042969 24.558594 C 24.386719 25.21875 23.671875 25.804688 22.898438 26.320312 C 22.125 26.835938 21.3125 27.273438 20.453125 27.628906 C 19.59375 27.984375 18.707031 28.253906 17.796875 28.433594 C 16.886719 28.613281 15.964844 28.707031 15.035156 28.707031 C 14.105469 28.707031 13.1875 28.613281 12.273438 28.433594 C 11.363281 28.253906 10.480469 27.984375 9.621094 27.628906 C 8.761719 27.273438 7.945312 26.835938 7.171875 26.320312 C 6.402344 25.804688 5.6875 25.21875 5.027344 24.558594 C 4.371094 23.902344 3.785156 23.1875 3.269531 22.414062 C 2.753906 21.644531 2.316406 20.828125 1.960938 19.96875 C 1.605469 19.109375 1.335938 18.226562 1.15625 17.3125 C 0.972656 16.402344 0.882812 15.480469 0.882812 14.550781 C 0.882812 13.625 0.972656 12.703125 1.15625 11.792969 C 1.335938 10.878906 1.605469 9.996094 1.960938 9.136719 C 2.316406 8.277344 2.753906 7.460938 3.269531 6.6875 C 3.785156 5.917969 4.371094 5.203125 5.027344 4.542969 C 5.6875 3.886719 6.402344 3.300781 7.171875 2.785156 C 7.945312 2.269531 8.761719 1.832031 9.621094 1.476562 C 10.480469 1.121094 11.363281 0.851562 12.273438 0.671875 C 13.1875 0.488281 14.105469 0.398438 15.035156 0.398438 C 15.964844 0.398438 16.886719 0.488281 17.796875 0.671875 C 18.707031 0.851562 19.59375 1.121094 20.453125 1.476562 C 21.3125 1.832031 22.125 2.269531 22.898438 2.785156 C 23.671875 3.300781 24.386719 3.886719 25.042969 4.542969 C 25.703125 5.203125 26.289062 5.917969 26.804688 6.6875 C 27.320312 7.460938 27.757812 8.277344 28.113281 9.136719 C 28.46875 9.996094 28.734375 10.878906 28.917969 11.792969 C 29.097656 12.703125 29.191406 13.625 29.191406 14.550781 Z M 29.191406 14.550781 " fill-opacity="1" fill-rule="nonzero"/></g><g fill="#ffffff" fill-opacity="1"><g transform="translate(5.63823, 20.467708)"><g><path d="M 1.640625 -17 C 2.078125 -17.4375 2.597656 -17.65625 3.203125 -17.65625 C 3.816406 -17.65625 4.34375 -17.4375 4.78125 -17 C 5.226562 -16.5625 5.453125 -16.035156 5.453125 -15.421875 C 5.453125 -14.816406 5.226562 -14.289062 4.78125 -13.84375 C 4.34375 -13.40625 3.816406 -13.1875 3.203125 -13.1875 C 2.597656 -13.1875 2.078125 -13.40625 1.640625 -13.84375 C 1.203125 -14.289062 0.984375 -14.816406 0.984375 -15.421875 C 0.984375 -16.035156 1.203125 -16.5625 1.640625 -17 Z M 1.28125 -10.921875 L 1.28125 0 L 5.046875 0 L 5.046875 -10.921875 Z M 1.28125 -10.921875 "/></g></g></g><g fill="#ffffff" fill-opacity="1"><g transform="translate(12.066761, 20.467708)"><g><path d="M 1.28125 0 L 1.28125 -10.921875 L 5.046875 -10.921875 L 5.046875 -9.765625 L 5.09375 -9.765625 C 6.0625 -10.742188 7.101562 -11.234375 8.21875 -11.234375 C 8.75 -11.234375 9.28125 -11.160156 9.8125 -11.015625 C 10.351562 -10.878906 10.867188 -10.660156 11.359375 -10.359375 C 11.847656 -10.066406 12.242188 -9.644531 12.546875 -9.09375 C 12.847656 -8.550781 13 -7.914062 13 -7.1875 L 13 0 L 9.234375 0 L 9.234375 -6.171875 C 9.234375 -6.734375 9.050781 -7.226562 8.6875 -7.65625 C 8.332031 -8.082031 7.863281 -8.296875 7.28125 -8.296875 C 6.707031 -8.296875 6.191406 -8.078125 5.734375 -7.640625 C 5.273438 -7.203125 5.046875 -6.710938 5.046875 -6.171875 L 5.046875 0 Z M 1.28125 0 "/></g></g></g></svg>