<svg xmlns="http://www.w3.org/2000/svg" viewBox="0 0 32 40" x="0px" y="0px"><g data-name="Layer 2"><path d="M27,6H5A3,3,0,0,0,2,9V23a3,3,0,0,0,3,3H27a3,3,0,0,0,3-3V9A3,3,0,0,0,27,6ZM16.58,17.74a.77.77,0,0,1-1.16,0L5.43,8H26.57Zm-6.4-2.32L4,22.48V9.4Zm1.43,1.4L14,19.17a2.78,2.78,0,0,0,4,0l2.41-2.35L26.67,24H5.33Zm10.21-1.4L28,9.4V22.48Z"/></g><text x="0" y="47" fill="#000000" font-size="5px" font-weight="bold" font-family="'Helvetica Neue', Helvetica, Arial-Unicode, Arial, Sans-serif">Created by Acep Surip Sukmadjaja</text><text x="0" y="52" fill="#000000" font-size="5px" font-weight="bold" font-family="'Helvetica Neue', Helvetica, Arial-Unicode, Arial, Sans-serif">from the Noun Project</text></svg>