<svg xmlns="http://www.w3.org/2000/svg" xmlns:xlink="http://www.w3.org/1999/xlink" width="40" zoomAndPan="magnify" viewBox="0 0 30 30.000001" height="40" preserveAspectRatio="xMidYMid meet" version="1.0"><defs><g/><clipPath id="aea3e1018b"><path d="M 5.855469 1.632812 L 24 1.632812 L 24 19.777344 L 5.855469 19.777344 Z M 5.855469 1.632812 " clip-rule="nonzero"/></clipPath></defs><g clip-path="url(#aea3e1018b)"><path fill="#000000" d="M 24 10.707031 C 24 11.300781 23.941406 11.890625 23.824219 12.476562 C 23.710938 13.058594 23.539062 13.628906 23.308594 14.175781 C 23.082031 14.726562 22.800781 15.25 22.472656 15.746094 C 22.140625 16.242188 21.765625 16.699219 21.34375 17.121094 C 20.921875 17.542969 20.464844 17.917969 19.96875 18.25 C 19.472656 18.582031 18.949219 18.859375 18.398438 19.085938 C 17.847656 19.316406 17.28125 19.488281 16.699219 19.605469 C 16.113281 19.71875 15.523438 19.777344 14.925781 19.777344 C 14.332031 19.777344 13.742188 19.71875 13.15625 19.605469 C 12.574219 19.488281 12.003906 19.316406 11.457031 19.085938 C 10.90625 18.859375 10.382812 18.582031 9.886719 18.25 C 9.390625 17.917969 8.933594 17.542969 8.511719 17.121094 C 8.089844 16.699219 7.714844 16.242188 7.382812 15.746094 C 7.054688 15.25 6.773438 14.726562 6.546875 14.175781 C 6.316406 13.628906 6.144531 13.058594 6.027344 12.476562 C 5.914062 11.890625 5.855469 11.300781 5.855469 10.707031 C 5.855469 10.109375 5.914062 9.519531 6.027344 8.9375 C 6.144531 8.351562 6.316406 7.785156 6.546875 7.234375 C 6.773438 6.683594 7.054688 6.160156 7.382812 5.664062 C 7.714844 5.167969 8.089844 4.710938 8.511719 4.289062 C 8.933594 3.867188 9.390625 3.492188 9.886719 3.160156 C 10.382812 2.832031 10.90625 2.550781 11.457031 2.324219 C 12.007812 2.097656 12.574219 1.921875 13.15625 1.808594 C 13.742188 1.691406 14.332031 1.632812 14.925781 1.632812 C 15.523438 1.632812 16.113281 1.691406 16.699219 1.808594 C 17.28125 1.921875 17.847656 2.097656 18.398438 2.324219 C 18.949219 2.550781 19.472656 2.832031 19.96875 3.160156 C 20.464844 3.492188 20.921875 3.867188 21.34375 4.289062 C 21.765625 4.710938 22.140625 5.167969 22.472656 5.664062 C 22.800781 6.160156 23.082031 6.683594 23.308594 7.234375 C 23.539062 7.785156 23.710938 8.351562 23.824219 8.9375 C 23.941406 9.519531 24 10.109375 24 10.707031 Z M 24 10.707031 " fill-opacity="1" fill-rule="nonzero"/></g><g fill="#ffffff" fill-opacity="1"><g transform="translate(8.935305, 14.633754)"><g><path d="M 1.0625 -11.015625 C 1.34375 -11.304688 1.679688 -11.453125 2.078125 -11.453125 C 2.472656 -11.453125 2.8125 -11.304688 3.09375 -11.015625 C 3.382812 -10.734375 3.53125 -10.394531 3.53125 -10 C 3.53125 -9.601562 3.382812 -9.257812 3.09375 -8.96875 C 2.8125 -8.6875 2.472656 -8.546875 2.078125 -8.546875 C 1.679688 -8.546875 1.34375 -8.6875 1.0625 -8.96875 C 0.78125 -9.257812 0.640625 -9.601562 0.640625 -10 C 0.640625 -10.394531 0.78125 -10.734375 1.0625 -11.015625 Z M 0.828125 -7.078125 L 0.828125 0 L 3.265625 0 L 3.265625 -7.078125 Z M 0.828125 -7.078125 "/></g></g></g><g fill="#ffffff" fill-opacity="1"><g transform="translate(13.099803, 14.633754)"><g><path d="M 0.828125 0 L 0.828125 -7.078125 L 3.265625 -7.078125 L 3.265625 -6.328125 L 3.296875 -6.328125 C 3.929688 -6.960938 4.609375 -7.28125 5.328125 -7.28125 C 5.671875 -7.28125 6.015625 -7.234375 6.359375 -7.140625 C 6.710938 -7.054688 7.046875 -6.914062 7.359375 -6.71875 C 7.679688 -6.519531 7.941406 -6.242188 8.140625 -5.890625 C 8.335938 -5.535156 8.4375 -5.125 8.4375 -4.65625 L 8.4375 0 L 5.984375 0 L 5.984375 -4 C 5.984375 -4.363281 5.863281 -4.679688 5.625 -4.953125 C 5.394531 -5.234375 5.09375 -5.375 4.71875 -5.375 C 4.351562 -5.375 4.019531 -5.234375 3.71875 -4.953125 C 3.414062 -4.671875 3.265625 -4.351562 3.265625 -4 L 3.265625 0 Z M 0.828125 0 "/></g></g></g><g fill="#000000" fill-opacity="1"><g transform="translate(7.175622, 25.516134)"><g><path d="M 0.703125 0.046875 C 1.046875 0.046875 1.265625 -0.140625 1.296875 -0.453125 L 1.015625 -0.453125 C 1 -0.3125 0.90625 -0.203125 0.71875 -0.203125 C 0.484375 -0.203125 0.359375 -0.40625 0.359375 -0.6875 C 0.359375 -0.96875 0.484375 -1.15625 0.71875 -1.15625 C 0.890625 -1.15625 1 -1.0625 1.015625 -0.921875 L 1.296875 -0.921875 C 1.265625 -1.21875 1.046875 -1.40625 0.71875 -1.40625 C 0.34375 -1.40625 0.0625 -1.140625 0.0625 -0.6875 C 0.0625 -0.234375 0.34375 0.046875 0.703125 0.046875 Z M 0.703125 0.046875 "/></g></g></g><g fill="#000000" fill-opacity="1"><g transform="translate(8.516917, 25.516134)"><g><path d="M 0.578125 0.03125 C 0.875 0.03125 1.078125 -0.1875 1.078125 -0.5 C 1.078125 -0.796875 0.875 -1.03125 0.578125 -1.03125 C 0.265625 -1.03125 0.0625 -0.796875 0.0625 -0.5 C 0.0625 -0.1875 0.265625 0.03125 0.578125 0.03125 Z M 0.578125 -0.1875 C 0.421875 -0.1875 0.328125 -0.296875 0.328125 -0.5 C 0.328125 -0.6875 0.421875 -0.8125 0.578125 -0.8125 C 0.71875 -0.8125 0.828125 -0.6875 0.828125 -0.5 C 0.828125 -0.296875 0.71875 -0.1875 0.578125 -0.1875 Z M 0.578125 -0.1875 "/></g></g></g><g fill="#000000" fill-opacity="1"><g transform="translate(9.662728, 25.516134)"><g><path d="M 0.671875 -1.03125 C 0.546875 -1.03125 0.453125 -0.96875 0.390625 -0.859375 L 0.390625 -1 L 0.109375 -1 L 0.109375 0 L 0.390625 0 L 0.390625 -0.53125 C 0.390625 -0.6875 0.46875 -0.78125 0.578125 -0.78125 C 0.6875 -0.78125 0.734375 -0.71875 0.734375 -0.609375 L 0.734375 0 L 1 0 L 1 -0.671875 C 1 -0.890625 0.890625 -1.03125 0.671875 -1.03125 Z M 0.671875 -1.03125 "/></g></g></g><g fill="#000000" fill-opacity="1"><g transform="translate(10.781443, 25.516134)"><g><path d="M 0.671875 -1.03125 C 0.546875 -1.03125 0.453125 -0.96875 0.390625 -0.859375 L 0.390625 -1 L 0.109375 -1 L 0.109375 0 L 0.390625 0 L 0.390625 -0.53125 C 0.390625 -0.6875 0.46875 -0.78125 0.578125 -0.78125 C 0.6875 -0.78125 0.734375 -0.71875 0.734375 -0.609375 L 0.734375 0 L 1 0 L 1 -0.671875 C 1 -0.890625 0.890625 -1.03125 0.671875 -1.03125 Z M 0.671875 -1.03125 "/></g></g></g><g fill="#000000" fill-opacity="1"><g transform="translate(11.900158, 25.516134)"><g><path d="M 1.0625 -0.46875 C 1.0625 -0.8125 0.84375 -1.03125 0.546875 -1.03125 C 0.25 -1.03125 0.0625 -0.796875 0.0625 -0.5 C 0.0625 -0.203125 0.25 0.03125 0.578125 0.03125 C 0.8125 0.03125 0.96875 -0.078125 1.046875 -0.28125 L 0.765625 -0.3125 C 0.734375 -0.21875 0.671875 -0.171875 0.578125 -0.171875 C 0.4375 -0.171875 0.359375 -0.265625 0.34375 -0.421875 L 1.0625 -0.421875 Z M 0.5625 -0.828125 C 0.6875 -0.828125 0.765625 -0.75 0.78125 -0.609375 L 0.34375 -0.609375 C 0.359375 -0.734375 0.4375 -0.828125 0.5625 -0.828125 Z M 0.5625 -0.828125 "/></g></g></g><g fill="#000000" fill-opacity="1"><g transform="translate(13.028549, 25.516134)"><g><path d="M 0.546875 0.03125 C 0.796875 0.03125 0.96875 -0.109375 1 -0.34375 L 0.734375 -0.34375 C 0.703125 -0.234375 0.640625 -0.1875 0.546875 -0.1875 C 0.40625 -0.1875 0.328125 -0.296875 0.328125 -0.5 C 0.328125 -0.703125 0.40625 -0.8125 0.546875 -0.8125 C 0.640625 -0.8125 0.703125 -0.765625 0.734375 -0.65625 L 1 -0.65625 C 0.96875 -0.890625 0.796875 -1.03125 0.546875 -1.03125 C 0.25 -1.03125 0.0625 -0.8125 0.0625 -0.5 C 0.0625 -0.171875 0.25 0.03125 0.546875 0.03125 Z M 0.546875 0.03125 "/></g></g></g><g fill="#000000" fill-opacity="1"><g transform="translate(14.087262, 25.516134)"><g><path d="M 0.625 -0.796875 L 0.625 -1 L 0.4375 -1 L 0.4375 -1.3125 L 0.171875 -1.3125 L 0.171875 -1 L 0.03125 -1 L 0.03125 -0.796875 L 0.171875 -0.796875 L 0.171875 -0.28125 C 0.171875 -0.078125 0.25 0 0.453125 0 L 0.625 0 L 0.625 -0.21875 L 0.53125 -0.21875 C 0.46875 -0.21875 0.4375 -0.25 0.4375 -0.3125 L 0.4375 -0.796875 Z M 0.625 -0.796875 "/></g></g></g><g fill="#000000" fill-opacity="1"><g transform="translate(14.749202, 25.516134)"><g/></g></g><g fill="#000000" fill-opacity="1"><g transform="translate(15.233074, 25.516134)"><g><path d="M 1.078125 -0.5625 L 1.03125 -0.296875 L 0.984375 -0.5625 L 0.875 -1 L 0.625 -1 L 0.515625 -0.5625 L 0.46875 -0.296875 L 0.421875 -0.5625 L 0.3125 -1 L 0.03125 -1 L 0.328125 0 L 0.578125 0 L 0.734375 -0.5625 L 0.75 -0.6875 L 0.921875 0 L 1.1875 0 L 1.46875 -1 L 1.1875 -1 Z M 1.078125 -0.5625 "/></g></g></g><g fill="#000000" fill-opacity="1"><g transform="translate(16.736951, 25.516134)"><g><path d="M 0.390625 -1.125 L 0.390625 -1.375 L 0.125 -1.375 L 0.125 -1.125 Z M 0.390625 0 L 0.390625 -1 L 0.109375 -1 L 0.109375 0 Z M 0.390625 0 "/></g></g></g><g fill="#000000" fill-opacity="1"><g transform="translate(17.242114, 25.516134)"><g><path d="M 0.625 -0.796875 L 0.625 -1 L 0.4375 -1 L 0.4375 -1.3125 L 0.171875 -1.3125 L 0.171875 -1 L 0.03125 -1 L 0.03125 -0.796875 L 0.171875 -0.796875 L 0.171875 -0.28125 C 0.171875 -0.078125 0.25 0 0.453125 0 L 0.625 0 L 0.625 -0.21875 L 0.53125 -0.21875 C 0.46875 -0.21875 0.4375 -0.25 0.4375 -0.3125 L 0.4375 -0.796875 Z M 0.625 -0.796875 "/></g></g></g><g fill="#000000" fill-opacity="1"><g transform="translate(17.904053, 25.516134)"><g><path d="M 0.671875 -1.03125 C 0.546875 -1.03125 0.453125 -0.96875 0.390625 -0.859375 L 0.390625 -1.375 L 0.109375 -1.375 L 0.109375 0 L 0.390625 0 L 0.390625 -0.53125 C 0.390625 -0.6875 0.46875 -0.78125 0.578125 -0.78125 C 0.6875 -0.78125 0.734375 -0.71875 0.734375 -0.609375 L 0.734375 0 L 1 0 L 1 -0.671875 C 1 -0.890625 0.890625 -1.03125 0.671875 -1.03125 Z M 0.671875 -1.03125 "/></g></g></g><g fill="#000000" fill-opacity="1"><g transform="translate(19.022767, 25.516134)"><g/></g></g><g fill="#000000" fill-opacity="1"><g transform="translate(19.50664, 25.516134)"><g><path d="M 1.234375 -1.03125 C 1.109375 -1.03125 1.015625 -0.96875 0.953125 -0.84375 C 0.90625 -0.953125 0.796875 -1.03125 0.65625 -1.03125 C 0.53125 -1.03125 0.453125 -0.96875 0.390625 -0.875 L 0.390625 -1 L 0.109375 -1 L 0.109375 0 L 0.390625 0 L 0.390625 -0.53125 C 0.390625 -0.6875 0.46875 -0.78125 0.5625 -0.78125 C 0.65625 -0.78125 0.703125 -0.703125 0.703125 -0.609375 L 0.703125 0 L 0.96875 0 L 0.96875 -0.53125 C 0.96875 -0.6875 1.046875 -0.78125 1.15625 -0.78125 C 1.25 -0.78125 1.28125 -0.703125 1.28125 -0.609375 L 1.28125 0 L 1.5625 0 L 1.5625 -0.671875 C 1.5625 -0.875 1.453125 -1.03125 1.234375 -1.03125 Z M 1.234375 -1.03125 "/></g></g></g><g fill="#000000" fill-opacity="1"><g transform="translate(21.180839, 25.516134)"><g><path d="M 1.0625 -0.46875 C 1.0625 -0.8125 0.84375 -1.03125 0.546875 -1.03125 C 0.25 -1.03125 0.0625 -0.796875 0.0625 -0.5 C 0.0625 -0.203125 0.25 0.03125 0.578125 0.03125 C 0.8125 0.03125 0.96875 -0.078125 1.046875 -0.28125 L 0.765625 -0.3125 C 0.734375 -0.21875 0.671875 -0.171875 0.578125 -0.171875 C 0.4375 -0.171875 0.359375 -0.265625 0.34375 -0.421875 L 1.0625 -0.421875 Z M 0.5625 -0.828125 C 0.6875 -0.828125 0.765625 -0.75 0.78125 -0.609375 L 0.34375 -0.609375 C 0.359375 -0.734375 0.4375 -0.828125 0.5625 -0.828125 Z M 0.5625 -0.828125 "/></g></g></g><g fill="#000000" fill-opacity="1"><g transform="translate(22.30923, 25.516134)"><g><path d="M 0.34375 -0.453125 L 0.421875 -1.03125 L 0.421875 -1.375 L 0.125 -1.375 L 0.125 -1.03125 L 0.203125 -0.453125 Z M 0.421875 0 L 0.421875 -0.296875 L 0.125 -0.296875 L 0.125 0 Z M 0.421875 0 "/></g></g></g><g fill="#000000" fill-opacity="1"><g transform="translate(22.85602, 25.516134)"><g/></g></g><g fill="#000000" fill-opacity="1"><g transform="translate(23.339892, 25.516134)"><g/></g></g></svg>