<svg xmlns="http://www.w3.org/2000/svg" xmlns:xlink="http://www.w3.org/1999/xlink" width="40" zoomAndPan="magnify" viewBox="0 0 30 30.000001" height="40" preserveAspectRatio="xMidYMid meet" version="1.0"><defs><g/><clipPath id="bfa5fd2642"><path d="M 5.746094 2.03125 L 24.617188 2.03125 L 24.617188 20.902344 L 5.746094 20.902344 Z M 5.746094 2.03125 " clip-rule="nonzero"/></clipPath></defs><g clip-path="url(#bfa5fd2642)"><path fill="#000000" d="M 15.179688 2.03125 C 9.96875 2.03125 5.746094 6.257812 5.746094 11.46875 C 5.746094 16.679688 9.96875 20.902344 15.179688 20.902344 C 20.390625 20.902344 24.617188 16.679688 24.617188 11.46875 C 24.617188 6.257812 20.390625 2.03125 15.179688 2.03125 Z M 9.429688 6.953125 L 20.921875 6.953125 C 20.949219 6.953125 20.96875 6.96875 20.980469 6.996094 C 20.988281 7.019531 20.984375 7.042969 20.964844 7.0625 L 17.101562 10.730469 L 17.09375 10.734375 L 15.941406 11.832031 C 15.832031 11.9375 15.703125 12.019531 15.5625 12.074219 C 15.417969 12.132812 15.269531 12.160156 15.117188 12.160156 C 14.960938 12.15625 14.816406 12.128906 14.671875 12.070312 C 14.53125 12.011719 14.40625 11.929688 14.292969 11.820312 L 13.226562 10.785156 C 13.226562 10.785156 13.222656 10.78125 13.222656 10.78125 L 9.386719 7.0625 C 9.367188 7.042969 9.359375 7.019531 9.371094 6.992188 C 9.382812 6.96875 9.402344 6.953125 9.429688 6.953125 Z M 8.890625 15.347656 L 8.890625 7.460938 C 8.890625 7.433594 8.902344 7.414062 8.929688 7.402344 C 8.953125 7.390625 8.976562 7.398438 8.996094 7.417969 L 12.640625 10.949219 C 12.667969 10.976562 12.671875 11.003906 12.644531 11.035156 L 9 15.386719 C 8.980469 15.410156 8.957031 15.417969 8.929688 15.40625 C 8.902344 15.398438 8.890625 15.375 8.890625 15.347656 Z M 21.039062 15.980469 L 9.324219 15.980469 C 9.296875 15.980469 9.277344 15.96875 9.265625 15.945312 C 9.253906 15.917969 9.257812 15.898438 9.277344 15.875 L 13.015625 11.410156 C 13.046875 11.375 13.078125 11.371094 13.109375 11.402344 L 13.929688 12.199219 C 14.257812 12.519531 14.652344 12.679688 15.113281 12.683594 L 15.121094 12.683594 C 15.578125 12.683594 15.972656 12.527344 16.300781 12.210938 L 17.207031 11.351562 C 17.242188 11.320312 17.273438 11.320312 17.300781 11.355469 L 21.085938 15.875 C 21.105469 15.898438 21.105469 15.917969 21.097656 15.945312 C 21.085938 15.96875 21.066406 15.980469 21.039062 15.980469 Z M 21.472656 15.347656 C 21.472656 15.375 21.460938 15.398438 21.433594 15.40625 C 21.402344 15.417969 21.378906 15.410156 21.363281 15.386719 L 17.675781 10.988281 C 17.652344 10.957031 17.652344 10.929688 17.683594 10.902344 L 21.367188 7.40625 C 21.386719 7.386719 21.410156 7.382812 21.433594 7.390625 C 21.460938 7.402344 21.472656 7.421875 21.472656 7.449219 Z M 21.472656 15.347656 " fill-opacity="1" fill-rule="nonzero"/></g><g fill="#000000" fill-opacity="1"><g transform="translate(2.09424, 25.516132)"><g><path d="M 0.53125 0.03125 C 0.796875 0.03125 0.984375 -0.078125 0.984375 -0.296875 C 0.984375 -0.453125 0.890625 -0.546875 0.6875 -0.578125 L 0.46875 -0.625 C 0.40625 -0.640625 0.359375 -0.671875 0.359375 -0.734375 C 0.359375 -0.796875 0.421875 -0.828125 0.5 -0.828125 C 0.609375 -0.828125 0.6875 -0.78125 0.703125 -0.703125 L 0.9375 -0.703125 C 0.921875 -0.90625 0.75 -1.03125 0.515625 -1.03125 C 0.265625 -1.03125 0.109375 -0.890625 0.109375 -0.703125 C 0.109375 -0.546875 0.203125 -0.4375 0.390625 -0.40625 L 0.59375 -0.359375 C 0.6875 -0.34375 0.71875 -0.3125 0.71875 -0.265625 C 0.71875 -0.1875 0.640625 -0.15625 0.546875 -0.15625 C 0.421875 -0.15625 0.34375 -0.203125 0.328125 -0.3125 L 0.078125 -0.296875 C 0.109375 -0.078125 0.265625 0.03125 0.53125 0.03125 Z M 0.53125 0.03125 "/></g></g></g><g fill="#000000" fill-opacity="1"><g transform="translate(3.139403, 25.516132)"><g><path d="M 1 0 C 0.96875 -0.046875 0.96875 -0.109375 0.96875 -0.203125 L 0.96875 -0.65625 C 0.96875 -0.890625 0.8125 -1.015625 0.53125 -1.015625 C 0.265625 -1.015625 0.125 -0.921875 0.109375 -0.703125 L 0.359375 -0.703125 C 0.375 -0.796875 0.421875 -0.828125 0.53125 -0.828125 C 0.640625 -0.828125 0.703125 -0.796875 0.703125 -0.71875 L 0.703125 -0.640625 L 0.359375 -0.578125 C 0.15625 -0.53125 0.046875 -0.4375 0.046875 -0.28125 C 0.046875 -0.09375 0.1875 0.03125 0.390625 0.03125 C 0.53125 0.03125 0.640625 -0.015625 0.703125 -0.09375 C 0.703125 -0.0625 0.71875 -0.03125 0.71875 0 Z M 0.46875 -0.171875 C 0.375 -0.171875 0.3125 -0.21875 0.3125 -0.296875 C 0.3125 -0.359375 0.359375 -0.40625 0.453125 -0.421875 L 0.703125 -0.46875 L 0.703125 -0.40625 C 0.703125 -0.25 0.609375 -0.171875 0.46875 -0.171875 Z M 0.46875 -0.171875 "/></g></g></g><g fill="#000000" fill-opacity="1"><g transform="translate(4.217472, 25.516132)"><g><path d="M 0.609375 -1.03125 C 0.5 -1.03125 0.421875 -0.96875 0.375 -0.859375 L 0.390625 -1 L 0.109375 -1 L 0.109375 0 L 0.390625 0 L 0.390625 -0.484375 C 0.390625 -0.6875 0.46875 -0.78125 0.640625 -0.78125 C 0.65625 -0.78125 0.671875 -0.765625 0.6875 -0.765625 L 0.6875 -1.015625 C 0.671875 -1.03125 0.640625 -1.03125 0.609375 -1.03125 Z M 0.609375 -1.03125 "/></g></g></g><g fill="#000000" fill-opacity="1"><g transform="translate(4.949086, 25.516132)"><g><path d="M 1 0 C 0.96875 -0.046875 0.96875 -0.109375 0.96875 -0.203125 L 0.96875 -0.65625 C 0.96875 -0.890625 0.8125 -1.015625 0.53125 -1.015625 C 0.265625 -1.015625 0.125 -0.921875 0.109375 -0.703125 L 0.359375 -0.703125 C 0.375 -0.796875 0.421875 -0.828125 0.53125 -0.828125 C 0.640625 -0.828125 0.703125 -0.796875 0.703125 -0.71875 L 0.703125 -0.640625 L 0.359375 -0.578125 C 0.15625 -0.53125 0.046875 -0.4375 0.046875 -0.28125 C 0.046875 -0.09375 0.1875 0.03125 0.390625 0.03125 C 0.53125 0.03125 0.640625 -0.015625 0.703125 -0.09375 C 0.703125 -0.0625 0.71875 -0.03125 0.71875 0 Z M 0.46875 -0.171875 C 0.375 -0.171875 0.3125 -0.21875 0.3125 -0.296875 C 0.3125 -0.359375 0.359375 -0.40625 0.453125 -0.421875 L 0.703125 -0.46875 L 0.703125 -0.40625 C 0.703125 -0.25 0.609375 -0.171875 0.46875 -0.171875 Z M 0.46875 -0.171875 "/></g></g></g><g fill="#000000" fill-opacity="1"><g transform="translate(6.027154, 25.516132)"><g><path d="M 0.671875 -1.03125 C 0.546875 -1.03125 0.453125 -0.96875 0.390625 -0.859375 L 0.390625 -1.375 L 0.109375 -1.375 L 0.109375 0 L 0.390625 0 L 0.390625 -0.53125 C 0.390625 -0.6875 0.46875 -0.78125 0.578125 -0.78125 C 0.6875 -0.78125 0.734375 -0.71875 0.734375 -0.609375 L 0.734375 0 L 1 0 L 1 -0.671875 C 1 -0.890625 0.890625 -1.03125 0.671875 -1.03125 Z M 0.671875 -1.03125 "/></g></g></g><g fill="#000000" fill-opacity="1"><g transform="translate(7.145868, 25.516132)"><g><path d="M 0.390625 0 L 0.390625 -1.375 L 0.109375 -1.375 L 0.109375 0 Z M 0.390625 0 "/></g></g></g><g fill="#000000" fill-opacity="1"><g transform="translate(7.65103, 25.516132)"><g><path d="M 0.578125 0.03125 C 0.875 0.03125 1.078125 -0.1875 1.078125 -0.5 C 1.078125 -0.796875 0.875 -1.03125 0.578125 -1.03125 C 0.265625 -1.03125 0.0625 -0.796875 0.0625 -0.5 C 0.0625 -0.1875 0.265625 0.03125 0.578125 0.03125 Z M 0.578125 -0.1875 C 0.421875 -0.1875 0.328125 -0.296875 0.328125 -0.5 C 0.328125 -0.6875 0.421875 -0.8125 0.578125 -0.8125 C 0.71875 -0.8125 0.828125 -0.6875 0.828125 -0.5 C 0.828125 -0.296875 0.71875 -0.1875 0.578125 -0.1875 Z M 0.578125 -0.1875 "/></g></g></g><g fill="#000000" fill-opacity="1"><g transform="translate(8.79684, 25.516132)"><g><path d="M 0.546875 0.03125 C 0.796875 0.03125 0.96875 -0.109375 1 -0.34375 L 0.734375 -0.34375 C 0.703125 -0.234375 0.640625 -0.1875 0.546875 -0.1875 C 0.40625 -0.1875 0.328125 -0.296875 0.328125 -0.5 C 0.328125 -0.703125 0.40625 -0.8125 0.546875 -0.8125 C 0.640625 -0.8125 0.703125 -0.765625 0.734375 -0.65625 L 1 -0.65625 C 0.96875 -0.890625 0.796875 -1.03125 0.546875 -1.03125 C 0.25 -1.03125 0.0625 -0.8125 0.0625 -0.5 C 0.0625 -0.171875 0.25 0.03125 0.546875 0.03125 Z M 0.546875 0.03125 "/></g></g></g><g fill="#000000" fill-opacity="1"><g transform="translate(9.855552, 25.516132)"><g><path d="M 1.078125 -1 L 0.734375 -1 L 0.5 -0.75 L 0.375 -0.59375 L 0.390625 -0.828125 L 0.390625 -1.375 L 0.109375 -1.375 L 0.109375 0 L 0.390625 0 L 0.390625 -0.328125 L 0.5 -0.4375 L 0.5625 -0.3125 L 0.75 0 L 1.078125 0 L 0.6875 -0.609375 Z M 1.078125 -1 "/></g></g></g><g fill="#000000" fill-opacity="1"><g transform="translate(10.962651, 25.516132)"><g><path d="M 1 0 C 0.96875 -0.046875 0.96875 -0.109375 0.96875 -0.203125 L 0.96875 -0.65625 C 0.96875 -0.890625 0.8125 -1.015625 0.53125 -1.015625 C 0.265625 -1.015625 0.125 -0.921875 0.109375 -0.703125 L 0.359375 -0.703125 C 0.375 -0.796875 0.421875 -0.828125 0.53125 -0.828125 C 0.640625 -0.828125 0.703125 -0.796875 0.703125 -0.71875 L 0.703125 -0.640625 L 0.359375 -0.578125 C 0.15625 -0.53125 0.046875 -0.4375 0.046875 -0.28125 C 0.046875 -0.09375 0.1875 0.03125 0.390625 0.03125 C 0.53125 0.03125 0.640625 -0.015625 0.703125 -0.09375 C 0.703125 -0.0625 0.71875 -0.03125 0.71875 0 Z M 0.46875 -0.171875 C 0.375 -0.171875 0.3125 -0.21875 0.3125 -0.296875 C 0.3125 -0.359375 0.359375 -0.40625 0.453125 -0.421875 L 0.703125 -0.46875 L 0.703125 -0.40625 C 0.703125 -0.25 0.609375 -0.171875 0.46875 -0.171875 Z M 0.46875 -0.171875 "/></g></g></g><g fill="#000000" fill-opacity="1"><g transform="translate(12.040719, 25.516132)"><g><path d="M 0.609375 -1.03125 C 0.5 -1.03125 0.421875 -0.96875 0.375 -0.859375 L 0.390625 -1 L 0.109375 -1 L 0.109375 0 L 0.390625 0 L 0.390625 -0.484375 C 0.390625 -0.6875 0.46875 -0.78125 0.640625 -0.78125 C 0.65625 -0.78125 0.671875 -0.765625 0.6875 -0.765625 L 0.6875 -1.015625 C 0.671875 -1.03125 0.640625 -1.03125 0.609375 -1.03125 Z M 0.609375 -1.03125 "/></g></g></g><g fill="#000000" fill-opacity="1"><g transform="translate(12.772334, 25.516132)"><g><path d="M 0.765625 -0.90625 C 0.6875 -0.984375 0.59375 -1.03125 0.46875 -1.03125 C 0.25 -1.03125 0.0625 -0.828125 0.0625 -0.5 C 0.0625 -0.1875 0.234375 0.03125 0.484375 0.03125 C 0.609375 0.03125 0.71875 -0.015625 0.78125 -0.125 L 0.796875 0 L 1.03125 0 L 1.03125 -1.375 L 0.765625 -1.375 Z M 0.546875 -0.203125 C 0.421875 -0.203125 0.328125 -0.3125 0.328125 -0.5 C 0.328125 -0.6875 0.421875 -0.796875 0.546875 -0.796875 C 0.6875 -0.796875 0.78125 -0.6875 0.78125 -0.5 C 0.78125 -0.328125 0.6875 -0.203125 0.546875 -0.203125 Z M 0.546875 -0.203125 "/></g></g></g><g fill="#000000" fill-opacity="1"><g transform="translate(13.922015, 25.516132)"><g><path d="M 1 -1.375 L 0.6875 -1.375 L 0.078125 -0.59375 L 0.078125 -0.296875 L 0.71875 -0.296875 L 0.71875 0 L 1 0 L 1 -0.296875 L 1.203125 -0.296875 L 1.203125 -0.515625 L 1 -0.515625 Z M 0.3125 -0.515625 L 0.703125 -1.015625 L 0.71875 -1.015625 L 0.71875 -0.515625 Z M 0.3125 -0.515625 "/></g></g></g><g fill="#000000" fill-opacity="1"><g transform="translate(15.199438, 25.516132)"><g><path d="M 1 -1.375 L 0.6875 -1.375 L 0.078125 -0.59375 L 0.078125 -0.296875 L 0.71875 -0.296875 L 0.71875 0 L 1 0 L 1 -0.296875 L 1.203125 -0.296875 L 1.203125 -0.515625 L 1 -0.515625 Z M 0.3125 -0.515625 L 0.703125 -1.015625 L 0.71875 -1.015625 L 0.71875 -0.515625 Z M 0.3125 -0.515625 "/></g></g></g><g fill="#000000" fill-opacity="1"><g transform="translate(16.476862, 25.516132)"><g><path d="M 1.0625 -1.40625 C 0.484375 -1.40625 0.125 -1.0625 0.125 -0.53125 C 0.125 0 0.484375 0.328125 1.0625 0.328125 C 1.21875 0.328125 1.34375 0.296875 1.46875 0.265625 L 1.46875 0.0625 C 1.34375 0.109375 1.203125 0.140625 1.046875 0.140625 C 0.609375 0.140625 0.34375 -0.125 0.34375 -0.53125 C 0.34375 -0.96875 0.609375 -1.21875 1.046875 -1.21875 C 1.5 -1.21875 1.765625 -0.96875 1.765625 -0.609375 C 1.765625 -0.40625 1.6875 -0.265625 1.5625 -0.265625 C 1.515625 -0.265625 1.46875 -0.296875 1.46875 -0.390625 L 1.46875 -0.953125 L 1.25 -0.953125 L 1.234375 -0.859375 C 1.171875 -0.9375 1.078125 -0.984375 0.96875 -0.984375 C 0.734375 -0.984375 0.59375 -0.796875 0.59375 -0.546875 C 0.59375 -0.265625 0.734375 -0.09375 0.96875 -0.09375 C 1.078125 -0.09375 1.1875 -0.140625 1.25 -0.234375 C 1.3125 -0.125 1.40625 -0.09375 1.515625 -0.09375 C 1.796875 -0.09375 1.953125 -0.328125 1.953125 -0.640625 C 1.953125 -1.0625 1.640625 -1.40625 1.0625 -1.40625 Z M 1.015625 -0.28125 C 0.90625 -0.28125 0.84375 -0.375 0.84375 -0.53125 C 0.84375 -0.6875 0.90625 -0.78125 1.015625 -0.78125 C 1.125 -0.78125 1.1875 -0.71875 1.21875 -0.609375 L 1.21875 -0.46875 C 1.1875 -0.359375 1.125 -0.28125 1.015625 -0.28125 Z M 1.015625 -0.28125 "/></g></g></g><g fill="#000000" fill-opacity="1"><g transform="translate(18.559449, 25.516132)"><g><path d="M 0.78125 -0.875 C 0.71875 -0.96875 0.625 -1.03125 0.484375 -1.03125 C 0.25 -1.03125 0.0625 -0.84375 0.0625 -0.515625 C 0.0625 -0.203125 0.234375 0 0.484375 0 C 0.609375 0 0.6875 -0.046875 0.765625 -0.125 L 0.765625 0.015625 C 0.765625 0.140625 0.71875 0.21875 0.546875 0.21875 C 0.4375 0.21875 0.359375 0.171875 0.34375 0.078125 L 0.09375 0.078125 C 0.125 0.296875 0.265625 0.421875 0.5625 0.421875 C 0.859375 0.421875 1.03125 0.28125 1.03125 0.015625 L 1.03125 -1 L 0.796875 -1 Z M 0.546875 -0.234375 C 0.421875 -0.234375 0.328125 -0.34375 0.328125 -0.515625 C 0.328125 -0.703125 0.421875 -0.8125 0.546875 -0.8125 C 0.6875 -0.8125 0.78125 -0.6875 0.78125 -0.515625 C 0.78125 -0.34375 0.6875 -0.234375 0.546875 -0.234375 Z M 0.546875 -0.234375 "/></g></g></g><g fill="#000000" fill-opacity="1"><g transform="translate(19.70913, 25.516132)"><g><path d="M 1.234375 -1.03125 C 1.109375 -1.03125 1.015625 -0.96875 0.953125 -0.84375 C 0.90625 -0.953125 0.796875 -1.03125 0.65625 -1.03125 C 0.53125 -1.03125 0.453125 -0.96875 0.390625 -0.875 L 0.390625 -1 L 0.109375 -1 L 0.109375 0 L 0.390625 0 L 0.390625 -0.53125 C 0.390625 -0.6875 0.46875 -0.78125 0.5625 -0.78125 C 0.65625 -0.78125 0.703125 -0.703125 0.703125 -0.609375 L 0.703125 0 L 0.96875 0 L 0.96875 -0.53125 C 0.96875 -0.6875 1.046875 -0.78125 1.15625 -0.78125 C 1.25 -0.78125 1.28125 -0.703125 1.28125 -0.609375 L 1.28125 0 L 1.5625 0 L 1.5625 -0.671875 C 1.5625 -0.875 1.453125 -1.03125 1.234375 -1.03125 Z M 1.234375 -1.03125 "/></g></g></g><g fill="#000000" fill-opacity="1"><g transform="translate(21.383328, 25.516132)"><g><path d="M 1 0 C 0.96875 -0.046875 0.96875 -0.109375 0.96875 -0.203125 L 0.96875 -0.65625 C 0.96875 -0.890625 0.8125 -1.015625 0.53125 -1.015625 C 0.265625 -1.015625 0.125 -0.921875 0.109375 -0.703125 L 0.359375 -0.703125 C 0.375 -0.796875 0.421875 -0.828125 0.53125 -0.828125 C 0.640625 -0.828125 0.703125 -0.796875 0.703125 -0.71875 L 0.703125 -0.640625 L 0.359375 -0.578125 C 0.15625 -0.53125 0.046875 -0.4375 0.046875 -0.28125 C 0.046875 -0.09375 0.1875 0.03125 0.390625 0.03125 C 0.53125 0.03125 0.640625 -0.015625 0.703125 -0.09375 C 0.703125 -0.0625 0.71875 -0.03125 0.71875 0 Z M 0.46875 -0.171875 C 0.375 -0.171875 0.3125 -0.21875 0.3125 -0.296875 C 0.3125 -0.359375 0.359375 -0.40625 0.453125 -0.421875 L 0.703125 -0.46875 L 0.703125 -0.40625 C 0.703125 -0.25 0.609375 -0.171875 0.46875 -0.171875 Z M 0.46875 -0.171875 "/></g></g></g><g fill="#000000" fill-opacity="1"><g transform="translate(22.461396, 25.516132)"><g><path d="M 0.390625 -1.125 L 0.390625 -1.375 L 0.125 -1.375 L 0.125 -1.125 Z M 0.390625 0 L 0.390625 -1 L 0.109375 -1 L 0.109375 0 Z M 0.390625 0 "/></g></g></g><g fill="#000000" fill-opacity="1"><g transform="translate(22.966559, 25.516132)"><g><path d="M 0.390625 0 L 0.390625 -1.375 L 0.109375 -1.375 L 0.109375 0 Z M 0.390625 0 "/></g></g></g><g fill="#000000" fill-opacity="1"><g transform="translate(23.471721, 25.516132)"><g><path d="M 0.4375 0 L 0.4375 -0.296875 L 0.109375 -0.296875 L 0.109375 0 Z M 0.4375 0 "/></g></g></g><g fill="#000000" fill-opacity="1"><g transform="translate(24.023336, 25.516132)"><g><path d="M 0.546875 0.03125 C 0.796875 0.03125 0.96875 -0.109375 1 -0.34375 L 0.734375 -0.34375 C 0.703125 -0.234375 0.640625 -0.1875 0.546875 -0.1875 C 0.40625 -0.1875 0.328125 -0.296875 0.328125 -0.5 C 0.328125 -0.703125 0.40625 -0.8125 0.546875 -0.8125 C 0.640625 -0.8125 0.703125 -0.765625 0.734375 -0.65625 L 1 -0.65625 C 0.96875 -0.890625 0.796875 -1.03125 0.546875 -1.03125 C 0.25 -1.03125 0.0625 -0.8125 0.0625 -0.5 C 0.0625 -0.171875 0.25 0.03125 0.546875 0.03125 Z M 0.546875 0.03125 "/></g></g></g><g fill="#000000" fill-opacity="1"><g transform="translate(25.082048, 25.516132)"><g><path d="M 0.578125 0.03125 C 0.875 0.03125 1.078125 -0.1875 1.078125 -0.5 C 1.078125 -0.796875 0.875 -1.03125 0.578125 -1.03125 C 0.265625 -1.03125 0.0625 -0.796875 0.0625 -0.5 C 0.0625 -0.1875 0.265625 0.03125 0.578125 0.03125 Z M 0.578125 -0.1875 C 0.421875 -0.1875 0.328125 -0.296875 0.328125 -0.5 C 0.328125 -0.6875 0.421875 -0.8125 0.578125 -0.8125 C 0.71875 -0.8125 0.828125 -0.6875 0.828125 -0.5 C 0.828125 -0.296875 0.71875 -0.1875 0.578125 -0.1875 Z M 0.578125 -0.1875 "/></g></g></g><g fill="#000000" fill-opacity="1"><g transform="translate(26.227858, 25.516132)"><g><path d="M 1.234375 -1.03125 C 1.109375 -1.03125 1.015625 -0.96875 0.953125 -0.84375 C 0.90625 -0.953125 0.796875 -1.03125 0.65625 -1.03125 C 0.53125 -1.03125 0.453125 -0.96875 0.390625 -0.875 L 0.390625 -1 L 0.109375 -1 L 0.109375 0 L 0.390625 0 L 0.390625 -0.53125 C 0.390625 -0.6875 0.46875 -0.78125 0.5625 -0.78125 C 0.65625 -0.78125 0.703125 -0.703125 0.703125 -0.609375 L 0.703125 0 L 0.96875 0 L 0.96875 -0.53125 C 0.96875 -0.6875 1.046875 -0.78125 1.15625 -0.78125 C 1.25 -0.78125 1.28125 -0.703125 1.28125 -0.609375 L 1.28125 0 L 1.5625 0 L 1.5625 -0.671875 C 1.5625 -0.875 1.453125 -1.03125 1.234375 -1.03125 Z M 1.234375 -1.03125 "/></g></g></g></svg>